<?xml version="1.0" encoding="UTF-8"?>
<svg width="699px" height="586px" viewBox="0 0 699 586" version="1.1" xmlns="http://www.w3.org/2000/svg" xmlns:xlink="http://www.w3.org/1999/xlink">
    <!-- Generator: Sketch 64 (93537) - https://sketch.com -->
    <title>Group</title>
    <desc>Created with Sketch.</desc>
    <g id="Page-1" stroke="none" stroke-width="1" fill="none" fill-rule="evenodd">
        <g id="Group" transform="translate(0.000000, -1.000000)">
            <rect id="Rectangle" stroke="#979797" fill="#C85656" x="0.5" y="1.5" width="698" height="585"></rect>
            <g id="gas" transform="translate(598.000000, 217.500000) rotate(-24.000000) translate(-598.000000, -217.500000) translate(544.000000, 122.000000)" fill="#D9A5A5" fill-rule="nonzero">
                <path d="M78.84,39.0539419 L78.84,26.7551867 L81.648,26.7551867 C88.992,26.7551867 95.04,20.7136929 95.04,13.3775934 C95.04,6.04149378 88.992,0 81.648,0 L26.352,0 C19.008,0 12.96,6.04149378 12.96,13.3775934 C12.96,20.7136929 19.008,26.7551867 26.352,26.7551867 L29.16,26.7551867 L29.16,39.0539419 C12.744,40.1327801 0,53.7261411 0,70.1244813 L0,104 L108,104 L108,70.1244813 C108,53.7261411 95.256,40.1327801 78.84,39.0539419 Z M68.04,38.8381743 L59.4,38.8381743 L59.4,34.0912863 L48.6,34.0912863 L48.6,38.8381743 L39.96,38.8381743 L39.96,26.5394191 L68.04,26.5394191 L68.04,38.8381743 L68.04,38.8381743 Z" id="Shape"></path>
                <path d="M0,115 L0,149.545455 C0,161.420455 6.696,172.215909 17.28,177.613636 L17.28,191 L90.72,191 L90.72,177.613636 C101.304,172.215909 108,161.420455 108,149.545455 L108,115 L0,115 Z" id="Path"></path>
            </g>
            <g id="gas" transform="translate(158.000000, 427.500000) rotate(-24.000000) translate(-158.000000, -427.500000) translate(104.000000, 332.000000)" fill="#D9A5A5" fill-rule="nonzero">
                <path d="M78.84,39.0539419 L78.84,26.7551867 L81.648,26.7551867 C88.992,26.7551867 95.04,20.7136929 95.04,13.3775934 C95.04,6.04149378 88.992,0 81.648,0 L26.352,0 C19.008,0 12.96,6.04149378 12.96,13.3775934 C12.96,20.7136929 19.008,26.7551867 26.352,26.7551867 L29.16,26.7551867 L29.16,39.0539419 C12.744,40.1327801 0,53.7261411 0,70.1244813 L0,104 L108,104 L108,70.1244813 C108,53.7261411 95.256,40.1327801 78.84,39.0539419 Z M68.04,38.8381743 L59.4,38.8381743 L59.4,34.0912863 L48.6,34.0912863 L48.6,38.8381743 L39.96,38.8381743 L39.96,26.5394191 L68.04,26.5394191 L68.04,38.8381743 L68.04,38.8381743 Z" id="Shape"></path>
                <path d="M0,115 L0,149.545455 C0,161.420455 6.696,172.215909 17.28,177.613636 L17.28,191 L90.72,191 L90.72,177.613636 C101.304,172.215909 108,161.420455 108,149.545455 L108,115 L0,115 Z" id="Path"></path>
            </g>
            <g id="gas" transform="translate(118.000000, 165.500000) rotate(-24.000000) translate(-118.000000, -165.500000) translate(64.000000, 70.000000)" fill="#D9A5A5" fill-rule="nonzero">
                <path d="M78.84,39.0539419 L78.84,26.7551867 L81.648,26.7551867 C88.992,26.7551867 95.04,20.7136929 95.04,13.3775934 C95.04,6.04149378 88.992,0 81.648,0 L26.352,0 C19.008,0 12.96,6.04149378 12.96,13.3775934 C12.96,20.7136929 19.008,26.7551867 26.352,26.7551867 L29.16,26.7551867 L29.16,39.0539419 C12.744,40.1327801 0,53.7261411 0,70.1244813 L0,104 L108,104 L108,70.1244813 C108,53.7261411 95.256,40.1327801 78.84,39.0539419 Z M68.04,38.8381743 L59.4,38.8381743 L59.4,34.0912863 L48.6,34.0912863 L48.6,38.8381743 L39.96,38.8381743 L39.96,26.5394191 L68.04,26.5394191 L68.04,38.8381743 L68.04,38.8381743 Z" id="Shape"></path>
                <path d="M0,115 L0,149.545455 C0,161.420455 6.696,172.215909 17.28,177.613636 L17.28,191 L90.72,191 L90.72,177.613636 C101.304,172.215909 108,161.420455 108,149.545455 L108,115 L0,115 Z" id="Path"></path>
            </g>
            <g id="gas" transform="translate(559.000000, 470.500000) rotate(-24.000000) translate(-559.000000, -470.500000) translate(505.000000, 375.000000)" fill="#D9A5A5" fill-rule="nonzero">
                <path d="M78.84,39.0539419 L78.84,26.7551867 L81.648,26.7551867 C88.992,26.7551867 95.04,20.7136929 95.04,13.3775934 C95.04,6.04149378 88.992,0 81.648,0 L26.352,0 C19.008,0 12.96,6.04149378 12.96,13.3775934 C12.96,20.7136929 19.008,26.7551867 26.352,26.7551867 L29.16,26.7551867 L29.16,39.0539419 C12.744,40.1327801 0,53.7261411 0,70.1244813 L0,104 L108,104 L108,70.1244813 C108,53.7261411 95.256,40.1327801 78.84,39.0539419 Z M68.04,38.8381743 L59.4,38.8381743 L59.4,34.0912863 L48.6,34.0912863 L48.6,38.8381743 L39.96,38.8381743 L39.96,26.5394191 L68.04,26.5394191 L68.04,38.8381743 L68.04,38.8381743 Z" id="Shape"></path>
                <path d="M0,115 L0,149.545455 C0,161.420455 6.696,172.215909 17.28,177.613636 L17.28,191 L90.72,191 L90.72,177.613636 C101.304,172.215909 108,161.420455 108,149.545455 L108,115 L0,115 Z" id="Path"></path>
            </g>
            <g id="gas" transform="translate(370.000000, 337.500000) rotate(37.000000) translate(-370.000000, -337.500000) translate(316.000000, 242.000000)" fill="#D9A5A5" fill-rule="nonzero">
                <path d="M78.84,39.0539419 L78.84,26.7551867 L81.648,26.7551867 C88.992,26.7551867 95.04,20.7136929 95.04,13.3775934 C95.04,6.04149378 88.992,0 81.648,0 L26.352,0 C19.008,0 12.96,6.04149378 12.96,13.3775934 C12.96,20.7136929 19.008,26.7551867 26.352,26.7551867 L29.16,26.7551867 L29.16,39.0539419 C12.744,40.1327801 0,53.7261411 0,70.1244813 L0,104 L108,104 L108,70.1244813 C108,53.7261411 95.256,40.1327801 78.84,39.0539419 Z M68.04,38.8381743 L59.4,38.8381743 L59.4,34.0912863 L48.6,34.0912863 L48.6,38.8381743 L39.96,38.8381743 L39.96,26.5394191 L68.04,26.5394191 L68.04,38.8381743 L68.04,38.8381743 Z" id="Shape"></path>
                <path d="M0,115 L0,149.545455 C0,161.420455 6.696,172.215909 17.28,177.613636 L17.28,191 L90.72,191 L90.72,177.613636 C101.304,172.215909 108,161.420455 108,149.545455 L108,115 L0,115 Z" id="Path"></path>
            </g>
            <g id="gas" transform="translate(335.000000, 109.500000) rotate(37.000000) translate(-335.000000, -109.500000) translate(281.000000, 14.000000)" fill="#D9A5A5" fill-rule="nonzero">
                <path d="M78.84,39.0539419 L78.84,26.7551867 L81.648,26.7551867 C88.992,26.7551867 95.04,20.7136929 95.04,13.3775934 C95.04,6.04149378 88.992,0 81.648,0 L26.352,0 C19.008,0 12.96,6.04149378 12.96,13.3775934 C12.96,20.7136929 19.008,26.7551867 26.352,26.7551867 L29.16,26.7551867 L29.16,39.0539419 C12.744,40.1327801 0,53.7261411 0,70.1244813 L0,104 L108,104 L108,70.1244813 C108,53.7261411 95.256,40.1327801 78.84,39.0539419 Z M68.04,38.8381743 L59.4,38.8381743 L59.4,34.0912863 L48.6,34.0912863 L48.6,38.8381743 L39.96,38.8381743 L39.96,26.5394191 L68.04,26.5394191 L68.04,38.8381743 L68.04,38.8381743 Z" id="Shape"></path>
                <path d="M0,115 L0,149.545455 C0,161.420455 6.696,172.215909 17.28,177.613636 L17.28,191 L90.72,191 L90.72,177.613636 C101.304,172.215909 108,161.420455 108,149.545455 L108,115 L0,115 Z" id="Path"></path>
            </g>
        </g>
    </g>
</svg>