<svg id="Layer_1" data-name="Layer 1" xmlns="http://www.w3.org/2000/svg" xmlns:xlink="http://www.w3.org/1999/xlink" viewBox="0 0 283.4646 70.8661"><defs><style>.cls-1{fill:#ffffff;}</style><symbol id="LOGO" data-name="LOGO" viewBox="0 0 68.486 75.908"><path class="cls-1" d="M8.0468,14.3449c.11.9242,2.4908,1.6752,6.5283,2.0289a141.4458,141.4458,0,0,0,18.4709-.5887,133.5889,133.5889,0,0,0,18.0706-3.7386c3.816-1.3551,5.8056-2.7273,5.691-3.694C56.6162,6.7377,49.7922,4.149,39.117,4.25,38.0033-.2474,32.6628.0025,32.6628.0025l-.4972.0589L29.99.3193l-.4972.0589S24.2274,1.3869,24.211,6.0371C13.8326,8.4845,7.8554,12.7306,8.0468,14.3449ZM29.8615,2.1412l.21-.0249.13-.0154,2.1753-.2578.13-.0154.21-.0249a3.6307,3.6307,0,0,1,3.9121,2.6c-2.84.27-7.6931.834-9.9585,1.1514A3.62,3.62,0,0,1,29.8615,2.1412Z"/><path class="cls-1" d="M36.108,60.5787a13.5481,13.5481,0,0,1-1.8023.149,11.8017,11.8017,0,0,1-1.7961-.1452l.6422,6.9281s-.1992,1.3781.7642,1.5976v.0009a1.46,1.46,0,0,0,.7849,0l0-.0009c.9634-.2195.7643-1.5976.7643-1.5976Z"/><path class="cls-1" d="M64.5971,29.8729l-.0008-.0008.8209-.6661c1.8323-1.8882,3.4115-4.0932,3.0045-6.9181-.3806-2.641-2.8313-3.7134-4.45-4.1373.3563-.8943.7365-1.67.9855-2.33-.418-3.3818-8.2176-5.1821-13.87-6.009a.1945.1945,0,0,0-.069.3825c5.9449,1.4271,9.7519,3.5488,9.7519,5.0536,0,.9876-4.3923,5.9569-26.4619,5.9569-22.12,0-26.0835-4.9709-26.0835-5.9569,0-1.5282,3.9268-3.6866,10.0315-5.116a.1945.1945,0,0,0-.0651-.3832C12.5083,10.5345,4.0949,12.3043,3.66,15.82c.2463.653.6209,1.4184.9736,2.3-1.6145.4018-4.1793,1.46-4.5693,4.1676-.3825,2.6546.9886,4.7623,2.6757,6.5737l1.1988.9814c.0346.0261.07.0562.1057.0865l.0447.0366h-.001a2.6355,2.6355,0,0,1,.7,2.5651c-.4063,2.438-6.3971,14.9647,10.74,22.3489-.3043,1.7778-.71,1.8794.8115,2.7936-.2029,2.7428-1.2173,16.2538-1.2173,16.2538s-.2029,1.93.71,1.9809c.8115-.1016,1.42-.1016,2.0794-3.7587S20.55,59.6039,20.55,59.6039A2.5338,2.5338,0,0,1,23.34,57.8261,80.7,80.7,0,0,0,34.22,58.8874l.0025.0054.0868-.0027.0868.0027.0025-.0054a80.7036,80.7036,0,0,0,10.88-1.0613,2.5336,2.5336,0,0,1,2.7905,1.7778s1.9781,8.8887,2.6374,12.5458,1.268,3.6571,2.0795,3.7587c.9129-.0508.71-1.9809.71-1.9809s-1.0144-13.511-1.2172-16.2538c1.5212-.914,1.116-1.0158.8117-2.7924l-.0438-.0012c17.1372-7.3842,11.1465-19.9109,10.74-22.3489A2.5841,2.5841,0,0,1,64.5971,29.8729ZM4.839,26.2477c-1.09-.7021-2.3557-1.82-2.3025-3.2148.0763-2.0018,1.6467-2.52,2.8124-2.6265A9.9394,9.9394,0,0,1,4.839,26.2477Zm58.4264-5.8252a2.6592,2.6592,0,0,1,2.6844,2.61c.0514,1.35-1.1334,2.4412-2.1979,3.1466A9.9266,9.9266,0,0,1,63.2654,20.4225Z"/></symbol></defs><title>meicn_Artboard 1 copy</title><path class="cls-1" d="M86.767,20.1515a3.5441,3.5441,0,0,1-.65-2.1377q0-1.7956,2.4156-2.8494a153.34,153.34,0,0,1,17.8411-2.5394q2.4156,1.0541,2.4165,2.8494a3.0206,3.0206,0,0,1-1.1152,2.168,6.3443,6.3443,0,0,1-2.54,1.4866l-3.407.4338q-1.0542,4.6455-4.8322,20.0091L91.5127,60.1911l4.77-.4952q2.4156,1.0542,2.4165,2.8494a3.021,3.021,0,0,1-1.1151,2.1689,6.3557,6.3557,0,0,1-2.54,1.4866l-2.4779.3091q-9.1068.9927-14,2.0451a3.8026,3.8026,0,0,1-1.8892-1.3325,3.5406,3.5406,0,0,1-.65-2.1369q0-1.7956,2.4156-2.8494,3.0971-.6186,4.7084-.8675L93.6122,20.6156q-2.5413.3727-4.956.8676A3.7949,3.7949,0,0,1,86.767,20.1515Z"/><path class="cls-1" d="M107.0091,25.956q0-.6186,1.3628-1.0225a13.9334,13.9334,0,0,1,3.7793-.4026,3.1491,3.1491,0,0,1,2.9108,1.2078,7.2753,7.2753,0,0,1,.93,3.1282c-.0837.3313-.1656.7856-.2485,1.3628l-.309,1.4875a19.9386,19.9386,0,0,1,5.3273-4.12q3.5313-2.0135,5.5136-2.0139,3.0957,0,4.3048,1.084t1.394,4.12a22.5046,22.5046,0,0,1,5.2659-3.6858,11.8,11.8,0,0,1,5.2036-1.5178,9.8246,9.8246,0,0,1,4.336.96,3.2033,3.2033,0,0,1,1.9828,3.0667,4.701,4.701,0,0,1-.0624.8676q-.1857.9913-.7126,2.7568t-.774,2.5706q-1.55,5.0169-2.3853,8.4556a37.3374,37.3374,0,0,0-1.0217,6.7213l.8667,3.0356a5.7594,5.7594,0,0,1-2.0754,2.2606,7.3344,7.3344,0,0,1-3.8711.8364,2.4439,2.4439,0,0,1-2.168-.99,4.2714,4.2714,0,0,1-.6814-2.478,4.0976,4.0976,0,0,1,.0615-.6814,4.2127,4.2127,0,0,0,.0623-.6814,33.5416,33.5416,0,0,1,1.0217-7.0314q.8979-3.5619,2.323-8.0227a23.8958,23.8958,0,0,0,1.3013-4.77,3.4206,3.4206,0,0,0-.0935-.7741c-.0615-.2681-.1345-.4026-.2164-.4026a14.3,14.3,0,0,0-4.6772,1.3628,11.5135,11.5135,0,0,0-4.3672,2.7256q-1.177,3.78-3.9031,15.7345l-.3715,1.7352a11.39,11.39,0,0,1-.5887,2.2294,1.8347,1.8347,0,0,1-1.084.93,7.8963,7.8963,0,0,1-2.6018.3091q-4.2741,0-4.2746-1.7342.4958-1.3614,2.7265-10.4695,1.3616-5.6356,3.0971-12.4514-.3715.1858-1.3628.5576a42.3188,42.3188,0,0,0-5.1724,2.4157,12.3026,12.3026,0,0,0-3.562,2.9117l-1.6113,6.5664q-.3716,1.4871-.6814,2.7568t-.5576,2.1377a13.8286,13.8286,0,0,0-.4329,2.8494,7.5081,7.5081,0,0,1-.3412,1.7966,1.7368,1.7368,0,0,1-1.0528.8978,7.5,7.5,0,0,1-2.633.3412,8.5187,8.5187,0,0,1-3.097-.4338,1.79,1.79,0,0,1-1.0537-1.8589q0-.68,1.58-7.2478Q105.894,38.78,108.62,28.2478l-1.4243-1.8589A.5938.5938,0,0,1,107.0091,25.956Z"/><path class="cls-1" d="M157.5208,49.02a2.987,2.987,0,0,1-.5879,1.3325,1.8071,1.8071,0,0,1-1.27.34l-1.7342.0624a4.2459,4.2459,0,0,1-2.478-.65,3.3105,3.3105,0,0,1-1.0537-2.6329,24.7844,24.7844,0,0,0,1.239-3.9646q.7442-3.0342,1.4875-6.0088t1.4242-5.7612q.93-3.6555,2.7256-10.9344T160.0611,9.25a9.8871,9.8871,0,0,1,.4952-2.6027,9.5289,9.5289,0,0,1,1.4866-3.0044A2.9346,2.9346,0,0,1,164.46,2.3112a4.1114,4.1114,0,0,1,2.6632,1.0225,3.3861,3.3861,0,0,1,1.3013,2.5706l-4.6459,18.3364a9.508,9.508,0,0,1,7.4339-3.4694,8.5586,8.5586,0,0,1,5.1412,1.6113,10.7635,10.7635,0,0,1,3.4694,4.2746,13.3542,13.3542,0,0,1,1.239,5.6988,23.452,23.452,0,0,1-1.7654,8.92,16.8425,16.8425,0,0,1-5.4521,7.1552,14.3989,14.3989,0,0,1-9.0132,2.8182,9.0178,9.0178,0,0,1-3.81-1.1152,5.8038,5.8038,0,0,1-2.9429-2.6632Q157.7684,48.2143,157.5208,49.02Zm4.4607-4.15a5.2811,5.2811,0,0,0,2.9117,1.1152,7.0257,7.0257,0,0,0,4.9863-1.9516,12.2988,12.2988,0,0,0,3.1291-4.8633,16.8757,16.8757,0,0,0,1.0528-5.7612q0-7.1226-4.1507-7.1239a8.0837,8.0837,0,0,0-5.0486,1.7965,8.7505,8.7505,0,0,0-3.1282,4.8322l-2.168,9.4158A7.779,7.779,0,0,0,161.9815,44.87Z"/><path class="cls-1" d="M192.0881,44.1264a8.9161,8.9161,0,0,0-.2476,2.1681l.0624,1.7342a1.6515,1.6515,0,0,1-.6512,1.4866,6.0061,6.0061,0,0,1-2.7567.4961,8.5226,8.5226,0,0,1-3.0971-.4338,1.79,1.79,0,0,1-1.0528-1.8589q0-.68,1.5793-7.2478,1.5792-6.5655,4.3057-17.0973l-1.4252-1.8589a.5938.5938,0,0,1-.1861-.4329q0-.6186,1.3637-1.0226a13.9306,13.9306,0,0,1,3.7784-.4026q2.1057,0,2.6944,1.2078a7.7652,7.7652,0,0,1,.6511,3.1282Q193.8211,37.3735,192.0881,44.1264Zm-.2788-34.5055a4.1057,4.1057,0,0,1,3.3767-1.4866,6.0385,6.0385,0,0,1,3.9949,1.4251,4.15,4.15,0,0,1,1.704,3.2209,3.8012,3.8012,0,0,1-1.7343,3.0979,6.5338,6.5338,0,0,1-4.0269,1.3,4.5716,4.5716,0,0,1-3.3758-1.1464,4.0571,4.0571,0,0,1-1.1464-3.0044A5.2541,5.2541,0,0,1,191.8093,9.6209Z"/><path class="cls-1" d="M214.3315,31.7405l-12.3152,3.8882a1.6261,1.6261,0,0,1-1.5707-.6375,3.5182,3.5182,0,0,1-.8012-1.7572,5.1019,5.1019,0,0,1,.6343-3.2308q.3345-.6769,9.25-2.8233t11.8549-2.596a2.0694,2.0694,0,0,1,2.0509.5011,4.2727,4.2727,0,0,1,.81,1.8188,4.624,4.624,0,0,1-1.1138,2.5518,9.7229,9.7229,0,0,1-2.0183,2.3764,50.6056,50.6056,0,0,0-3.41,4.7517q-1.3589,2.181-2.9256,5.0534-2.9521,5.2764-5.1556,8.4958,1.6254-.4363,6.7607-2.0985a36.3943,36.3943,0,0,1,4.3149-1.2867,1.9179,1.9179,0,0,1,1.7192.5833,2.6446,2.6446,0,0,1,.8413,1.4068q.14.918-1.6269,2.0662A21.648,21.648,0,0,1,215.774,54.3q-4.3906,2.02-9.0136,3.7593-4.6214,1.74-5.2341,1.8345-.9178.14-1.6288-1.2243a10.0055,10.0055,0,0,1-.9669-2.641A282.1912,282.1912,0,0,1,214.3315,31.7405Z"/><path class="cls-1" d="M249.5151,46.7594a11.3935,11.3935,0,0,1-2.7568.4026q-1.1155,0-1.4554-.5264a5.1439,5.1439,0,0,1-.5888-1.58q-.2486-1.0528-.31-1.4252a23.5133,23.5133,0,0,1-5.42,2.7568,14.58,14.58,0,0,1-4.6157.96,7.9681,7.9681,0,0,1-3.6234-1.0528,10.6149,10.6149,0,0,1-3.4382-2.8495,6.2285,6.2285,0,0,1-1.4251-3.9645,23.8994,23.8994,0,0,1,2.2918-8.8591,28.3236,28.3236,0,0,1,6.4737-9.4158,13.6292,13.6292,0,0,1,9.7569-4.0269,23.2207,23.2207,0,0,1,8.7344,1.5489q3.8412,1.55,3.8408,4.3984a58.1271,58.1271,0,0,0-3.7472,9.6634q-2.0136,6.4438-2.014,9.5405a9.5905,9.5905,0,0,0,.31,2.9117A2.6648,2.6648,0,0,1,249.5151,46.7594Zm-3.2832-14.8055a44.5971,44.5971,0,0,1,3.252-7.5275,2.3474,2.3474,0,0,0-1.9516-1.6416,12.5112,12.5112,0,0,0-2.942-.4026q-2.2928,0-4.956,3.0979a30.4716,30.4716,0,0,0-4.5533,7.2166,17.0775,17.0775,0,0,0-1.8892,6.66,2.093,2.093,0,0,0,.6814,1.7655,2.7521,2.7521,0,0,0,1.7342.5264,15.985,15.985,0,0,0,4.5534-1.084,14.3638,14.3638,0,0,0,4.3672-2.1378A51.9711,51.9711,0,0,1,246.2319,31.9539Z"/><use width="68.4862" height="75.9084" transform="translate(0 0.6582) scale(0.9162)" xlink:href="#LOGO"/></svg>