<?xml version="1.0" encoding="UTF-8"?>
<svg width="483px" height="405px" viewBox="0 0 483 405" version="1.1" xmlns="http://www.w3.org/2000/svg" xmlns:xlink="http://www.w3.org/1999/xlink">
    <!-- Generator: Sketch 64 (93537) - https://sketch.com -->
    <title>Group</title>
    <desc>Created with Sketch.</desc>
    <g id="Page-1" stroke="none" stroke-width="1" fill="none" fill-rule="evenodd">
        <g id="Group">
            <rect id="Rectangle" fill="#BE7575" x="0" y="0" width="483" height="405"></rect>
            <g id="gas" transform="translate(409.918422, 139.981028) rotate(-24.000000) translate(-409.918422, -139.981028) translate(388.918422, 103.481028)" fill="#D9A5A5" fill-rule="nonzero">
                <path d="M30.8631809,14.8919982 L30.8631809,10.279965 L31.9291809,10.279965 C34.7171809,10.279965 37.0131809,8.01440485 37.0131809,5.2633675 C37.0131809,2.51233016 34.7171809,0.246769993 31.9291809,0.246769993 L10.9371809,0.246769993 C8.14918088,0.246769993 5.85318088,2.51233016 5.85318088,5.2633675 C5.85318088,8.01440485 8.14918088,10.279965 10.9371809,10.279965 L12.0031809,10.279965 L12.0031809,14.8919982 C5.77118088,15.2965625 0.933180884,20.3940729 0.933180884,26.5434505 L0.933180884,39.24677 L41.9331809,39.24677 L41.9331809,26.5434505 C41.9331809,20.3940729 37.0951809,15.2965625 30.8631809,14.8919982 Z M26.7631809,14.8110853 L23.4831809,14.8110853 L23.4831809,13.0310024 L19.3831809,13.0310024 L19.3831809,14.8110853 L16.1031809,14.8110853 L16.1031809,10.1990522 L26.7631809,10.1990522 L26.7631809,14.8110853 L26.7631809,14.8110853 Z" id="Shape"></path>
                <path d="M0.400580241,43.3219107 L0.400580241,56.5037288 C0.400580241,61.0349788 2.94258024,65.154297 6.96058024,67.2139561 L6.96058024,72.3219107 L34.8405802,72.3219107 L34.8405802,67.2139561 C38.8585802,65.154297 41.4005802,61.0349788 41.4005802,56.5037288 L41.4005802,43.3219107 L0.400580241,43.3219107 Z" id="Path"></path>
            </g>
            <g id="gas" transform="translate(70.834028, 353.003887) rotate(-24.000000) translate(-70.834028, -353.003887) translate(53.334028, 322.503887)" fill="#D9A5A5" fill-rule="nonzero">
                <path d="M25.0761396,12.5963341 L25.0761396,8.69384447 L25.9601396,8.69384447 C28.2721396,8.69384447 30.1761396,6.77683202 30.1761396,4.44903119 C30.1761396,2.12123036 28.2721396,0.204217916 25.9601396,0.204217916 L8.55213965,0.204217916 C6.24013965,0.204217916 4.33613965,2.12123036 4.33613965,4.44903119 C4.33613965,6.77683202 6.24013965,8.69384447 8.55213965,8.69384447 L9.43613965,8.69384447 L9.43613965,12.5963341 C4.26813965,12.9386578 0.256139649,17.2519358 0.256139649,22.4552553 L0.256139649,33.2042179 L34.2561396,33.2042179 L34.2561396,22.4552553 C34.2561396,17.2519358 30.2441396,12.9386578 25.0761396,12.5963341 Z M21.6761396,12.5278694 L18.9561396,12.5278694 L18.9561396,11.0216453 L15.5561396,11.0216453 L15.5561396,12.5278694 L12.8361396,12.5278694 L12.8361396,8.62537974 L21.6761396,8.62537974 L21.6761396,12.5278694 L21.6761396,12.5278694 Z" id="Shape"></path>
                <path d="M0.54023627,36.0278398 L0.54023627,46.9369307 C0.54023627,50.6869307 2.64823627,54.0960216 5.98023627,55.8005671 L5.98023627,60.0278398 L29.1002363,60.0278398 L29.1002363,55.8005671 C32.4322363,54.0960216 34.5402363,50.6869307 34.5402363,46.9369307 L34.5402363,36.0278398 L0.54023627,36.0278398 Z" id="Path"></path>
            </g>
            <g id="gas" transform="translate(74.447717, 78.629495) rotate(-24.000000) translate(-74.447717, -78.629495) translate(57.447717, 48.629495)" fill="#D9A5A5" fill-rule="nonzero">
                <path d="M24.2933683,12.0598248 L24.2933683,8.27559242 L25.1513683,8.27559242 C27.3953683,8.27559242 29.2433683,6.41667125 29.2433683,4.15940984 C29.2433683,1.90214843 27.3953683,0.0432272712 25.1513683,0.0432272712 L8.25536832,0.0432272712 C6.01136832,0.0432272712 4.16336832,1.90214843 4.16336832,4.15940984 C4.16336832,6.41667125 6.01136832,8.27559242 8.25536832,8.27559242 L9.11336832,8.27559242 L9.11336832,12.0598248 C4.09736832,12.391775 0.203368322,16.5743476 0.203368322,21.6199908 L0.203368322,32.0432273 L33.2033683,32.0432273 L33.2033683,21.6199908 C33.2033683,16.5743476 29.3093683,12.391775 24.2933683,12.0598248 Z M20.9933683,11.9934347 L18.3533683,11.9934347 L18.3533683,10.5328538 L15.0533683,10.5328538 L15.0533683,11.9934347 L12.4133683,11.9934347 L12.4133683,8.20920237 L20.9933683,8.20920237 L20.9933683,11.9934347 L20.9933683,11.9934347 Z" id="Shape"></path>
                <path d="M0.284096622,35.8236219 L0.284096622,46.7327128 C0.284096622,50.4827128 2.33009662,53.8918037 5.56409662,55.5963492 L5.56409662,59.8236219 L28.0040966,59.8236219 L28.0040966,55.5963492 C31.2380966,53.8918037 33.2840966,50.4827128 33.2840966,46.7327128 L33.2840966,35.8236219 L0.284096622,35.8236219 Z" id="Path"></path>
            </g>
            <g id="gas" transform="translate(269.000000, 358.000000) rotate(-24.000000) translate(-269.000000, -358.000000) translate(252.000000, 328.000000)" fill="#D9A5A5" fill-rule="nonzero">
                <path d="M24.2933683,12.0598248 L24.2933683,8.27559242 L25.1513683,8.27559242 C27.3953683,8.27559242 29.2433683,6.41667125 29.2433683,4.15940984 C29.2433683,1.90214843 27.3953683,0.0432272712 25.1513683,0.0432272712 L8.25536832,0.0432272712 C6.01136832,0.0432272712 4.16336832,1.90214843 4.16336832,4.15940984 C4.16336832,6.41667125 6.01136832,8.27559242 8.25536832,8.27559242 L9.11336832,8.27559242 L9.11336832,12.0598248 C4.09736832,12.391775 0.203368322,16.5743476 0.203368322,21.6199908 L0.203368322,32.0432273 L33.2033683,32.0432273 L33.2033683,21.6199908 C33.2033683,16.5743476 29.3093683,12.391775 24.2933683,12.0598248 Z M20.9933683,11.9934347 L18.3533683,11.9934347 L18.3533683,10.5328538 L15.0533683,10.5328538 L15.0533683,11.9934347 L12.4133683,11.9934347 L12.4133683,8.20920237 L20.9933683,8.20920237 L20.9933683,11.9934347 L20.9933683,11.9934347 Z" id="Shape"></path>
                <path d="M0.284096622,35.8236219 L0.284096622,46.7327128 C0.284096622,50.4827128 2.33009662,53.8918037 5.56409662,55.5963492 L5.56409662,59.8236219 L28.0040966,59.8236219 L28.0040966,55.5963492 C31.2380966,53.8918037 33.2840966,50.4827128 33.2840966,46.7327128 L33.2840966,35.8236219 L0.284096622,35.8236219 Z" id="Path"></path>
            </g>
            <g id="gas" transform="translate(167.000000, 41.000000) rotate(-24.000000) translate(-167.000000, -41.000000) translate(150.000000, 11.000000)" fill="#D9A5A5" fill-rule="nonzero">
                <path d="M24.2933683,12.0598248 L24.2933683,8.27559242 L25.1513683,8.27559242 C27.3953683,8.27559242 29.2433683,6.41667125 29.2433683,4.15940984 C29.2433683,1.90214843 27.3953683,0.0432272712 25.1513683,0.0432272712 L8.25536832,0.0432272712 C6.01136832,0.0432272712 4.16336832,1.90214843 4.16336832,4.15940984 C4.16336832,6.41667125 6.01136832,8.27559242 8.25536832,8.27559242 L9.11336832,8.27559242 L9.11336832,12.0598248 C4.09736832,12.391775 0.203368322,16.5743476 0.203368322,21.6199908 L0.203368322,32.0432273 L33.2033683,32.0432273 L33.2033683,21.6199908 C33.2033683,16.5743476 29.3093683,12.391775 24.2933683,12.0598248 Z M20.9933683,11.9934347 L18.3533683,11.9934347 L18.3533683,10.5328538 L15.0533683,10.5328538 L15.0533683,11.9934347 L12.4133683,11.9934347 L12.4133683,8.20920237 L20.9933683,8.20920237 L20.9933683,11.9934347 L20.9933683,11.9934347 Z" id="Shape"></path>
                <path d="M0.284096622,35.8236219 L0.284096622,46.7327128 C0.284096622,50.4827128 2.33009662,53.8918037 5.56409662,55.5963492 L5.56409662,59.8236219 L28.0040966,59.8236219 L28.0040966,55.5963492 C31.2380966,53.8918037 33.2840966,50.4827128 33.2840966,46.7327128 L33.2840966,35.8236219 L0.284096622,35.8236219 Z" id="Path"></path>
            </g>
            <g id="gas" transform="translate(177.500000, 302.500000) rotate(-1.000000) translate(-177.500000, -302.500000) translate(156.000000, 266.000000)" fill="#D9A5A5" fill-rule="nonzero">
                <path d="M31.3823383,15.4032535 L31.3823383,10.7912203 L32.4483383,10.7912203 C35.2363383,10.7912203 37.5323383,8.52566015 37.5323383,5.77462281 C37.5323383,3.02358546 35.2363383,0.758025295 32.4483383,0.758025295 L11.4563383,0.758025295 C8.6683383,0.758025295 6.3723383,3.02358546 6.3723383,5.77462281 C6.3723383,8.52566015 8.6683383,10.7912203 11.4563383,10.7912203 L12.5223383,10.7912203 L12.5223383,15.4032535 C6.2903383,15.8078178 1.4523383,20.9053282 1.4523383,27.0547058 L1.4523383,39.7580253 L42.4523383,39.7580253 L42.4523383,27.0547058 C42.4523383,20.9053282 37.6143383,15.8078178 31.3823383,15.4032535 Z M27.2823383,15.3223406 L24.0023383,15.3223406 L24.0023383,13.5422577 L19.9023383,13.5422577 L19.9023383,15.3223406 L16.6223383,15.3223406 L16.6223383,10.7103075 L27.2823383,10.7103075 L27.2823383,15.3223406 L27.2823383,15.3223406 Z" id="Shape"></path>
                <path d="M0.919737655,43.833166 L0.919737655,57.0149841 C0.919737655,61.5462341 3.46173766,65.6655523 7.47973766,67.7252114 L7.47973766,72.833166 L35.3597377,72.833166 L35.3597377,67.7252114 C39.3777377,65.6655523 41.9197377,61.5462341 41.9197377,57.0149841 L41.9197377,43.833166 L0.919737655,43.833166 Z" id="Path"></path>
            </g>
            <g id="gas" transform="translate(256.982798, 249.385274) rotate(-24.000000) translate(-256.982798, -249.385274) translate(236.482798, 214.385274)" fill="#D9A5A5" fill-rule="nonzero">
                <path d="M30.0854606,14.6946847 L30.0854606,10.2009088 L31.1254606,10.2009088 C33.8454606,10.2009088 36.0854606,7.99343989 36.0854606,5.31294196 C36.0854606,2.63244404 33.8454606,0.42497516 31.1254606,0.42497516 L10.6454606,0.42497516 C7.9254606,0.42497516 5.6854606,2.63244404 5.6854606,5.31294196 C5.6854606,7.99343989 7.9254606,10.2009088 10.6454606,10.2009088 L11.6854606,10.2009088 L11.6854606,14.6946847 C5.6054606,15.0888756 0.885460605,20.0556806 0.885460605,26.0473818 L0.885460605,38.4249752 L40.8854606,38.4249752 L40.8854606,26.0473818 C40.8854606,20.0556806 36.1654606,15.0888756 30.0854606,14.6946847 Z M26.0854606,14.6158465 L22.8854606,14.6158465 L22.8854606,12.8814067 L18.8854606,12.8814067 L18.8854606,14.6158465 L15.6854606,14.6158465 L15.6854606,10.1220706 L26.0854606,10.1220706 L26.0854606,14.6158465 L26.0854606,14.6158465 Z" id="Shape"></path>
                <path d="M0.962964926,42.6297976 L0.962964926,54.9025249 C0.962964926,59.1212749 3.44296493,62.9565022 7.36296493,64.8741158 L7.36296493,69.6297976 L34.5629649,69.6297976 L34.5629649,64.8741158 C38.4829649,62.9565022 40.9629649,59.1212749 40.9629649,54.9025249 L40.9629649,42.6297976 L0.962964926,42.6297976 Z" id="Path"></path>
            </g>
            <g id="gas" transform="translate(164.070951, 150.890745) rotate(-24.000000) translate(-164.070951, -150.890745) translate(142.570951, 114.390745)" fill="#D9A5A5" fill-rule="nonzero">
                <path d="M30.7569761,15.0413598 L30.7569761,10.3110693 L31.8489761,10.3110693 C34.7049761,10.3110693 37.0569761,7.98741788 37.0569761,5.16584112 C37.0569761,2.34426435 34.7049761,0.0206129006 31.8489761,0.0206129006 L10.3449761,0.0206129006 C7.48897607,0.0206129006 5.13697607,2.34426435 5.13697607,5.16584112 C5.13697607,7.98741788 7.48897607,10.3110693 10.3449761,10.3110693 L11.4369761,10.3110693 L11.4369761,15.0413598 C5.05297607,15.4562975 0.0969760728,20.6845133 0.0969760728,26.9915673 L0.0969760728,40.0206129 L42.0969761,40.0206129 L42.0969761,26.9915673 C42.0969761,20.6845133 37.1409761,15.4562975 30.7569761,15.0413598 Z M26.5569761,14.9583722 L23.1969761,14.9583722 L23.1969761,13.1326461 L18.9969761,13.1326461 L18.9969761,14.9583722 L15.6369761,14.9583722 L15.6369761,10.2280818 L26.5569761,10.2280818 L26.5569761,14.9583722 L26.5569761,14.9583722 Z" id="Shape"></path>
                <path d="M0.477920887,44.5024902 L0.477920887,57.2297629 C0.477920887,61.6047629 3.08192089,65.5820357 7.19792089,67.570672 L7.19792089,72.5024902 L35.7579209,72.5024902 L35.7579209,67.570672 C39.8739209,65.5820357 42.4779209,61.6047629 42.4779209,57.2297629 L42.4779209,44.5024902 L0.477920887,44.5024902 Z" id="Path"></path>
            </g>
            <g id="gas" transform="translate(304.139354, 160.883389) rotate(-24.000000) translate(-304.139354, -160.883389) translate(287.139354, 130.883389)" fill="#D9A5A5" fill-rule="nonzero">
                <path d="M24.2716035,12.8668501 L24.2716035,9.08261775 L25.1296035,9.08261775 C27.3736035,9.08261775 29.2216035,7.22369658 29.2216035,4.96643517 C29.2216035,2.70917376 27.3736035,0.8502526 25.1296035,0.8502526 L8.23360355,0.8502526 C5.98960355,0.8502526 4.14160355,2.70917376 4.14160355,4.96643517 C4.14160355,7.22369658 5.98960355,9.08261775 8.23360355,9.08261775 L9.09160355,9.08261775 L9.09160355,12.8668501 C4.07560355,13.1988003 0.181603546,17.3813729 0.181603546,22.4270161 L0.181603546,32.8502526 L33.1816035,32.8502526 L33.1816035,22.4270161 C33.1816035,17.3813729 29.2876035,13.1988003 24.2716035,12.8668501 Z M20.9716035,12.8004601 L18.3316035,12.8004601 L18.3316035,11.3398792 L15.0316035,11.3398792 L15.0316035,12.8004601 L12.3916035,12.8004601 L12.3916035,9.0162277 L20.9716035,9.0162277 L20.9716035,12.8004601 L20.9716035,12.8004601 Z" id="Shape"></path>
                <path d="M0.465700167,36.6738745 L0.465700167,47.12842 C0.465700167,50.72217 2.51170017,53.9892154 5.74570017,55.6227381 L5.74570017,59.6738745 L28.1857002,59.6738745 L28.1857002,55.6227381 C31.4197002,53.9892154 33.4657002,50.72217 33.4657002,47.12842 L33.4657002,36.6738745 L0.465700167,36.6738745 Z" id="Path"></path>
            </g>
            <g id="gas" transform="translate(42.000000, 159.000000) rotate(-24.000000) translate(-42.000000, -159.000000) translate(25.000000, 129.000000)" fill="#D9A5A5" fill-rule="nonzero">
                <path d="M24.2716035,12.8668501 L24.2716035,9.08261775 L25.1296035,9.08261775 C27.3736035,9.08261775 29.2216035,7.22369658 29.2216035,4.96643517 C29.2216035,2.70917376 27.3736035,0.8502526 25.1296035,0.8502526 L8.23360355,0.8502526 C5.98960355,0.8502526 4.14160355,2.70917376 4.14160355,4.96643517 C4.14160355,7.22369658 5.98960355,9.08261775 8.23360355,9.08261775 L9.09160355,9.08261775 L9.09160355,12.8668501 C4.07560355,13.1988003 0.181603546,17.3813729 0.181603546,22.4270161 L0.181603546,32.8502526 L33.1816035,32.8502526 L33.1816035,22.4270161 C33.1816035,17.3813729 29.2876035,13.1988003 24.2716035,12.8668501 Z M20.9716035,12.8004601 L18.3316035,12.8004601 L18.3316035,11.3398792 L15.0316035,11.3398792 L15.0316035,12.8004601 L12.3916035,12.8004601 L12.3916035,9.0162277 L20.9716035,9.0162277 L20.9716035,12.8004601 L20.9716035,12.8004601 Z" id="Shape"></path>
                <path d="M0.465700167,36.6738745 L0.465700167,47.12842 C0.465700167,50.72217 2.51170017,53.9892154 5.74570017,55.6227381 L5.74570017,59.6738745 L28.1857002,59.6738745 L28.1857002,55.6227381 C31.4197002,53.9892154 33.4657002,50.72217 33.4657002,47.12842 L33.4657002,36.6738745 L0.465700167,36.6738745 Z" id="Path"></path>
            </g>
            <g id="gas" transform="translate(444.000000, 346.000000) rotate(-24.000000) translate(-444.000000, -346.000000) translate(427.000000, 316.000000)" fill="#D9A5A5" fill-rule="nonzero">
                <path d="M24.2716035,12.8668501 L24.2716035,9.08261775 L25.1296035,9.08261775 C27.3736035,9.08261775 29.2216035,7.22369658 29.2216035,4.96643517 C29.2216035,2.70917376 27.3736035,0.8502526 25.1296035,0.8502526 L8.23360355,0.8502526 C5.98960355,0.8502526 4.14160355,2.70917376 4.14160355,4.96643517 C4.14160355,7.22369658 5.98960355,9.08261775 8.23360355,9.08261775 L9.09160355,9.08261775 L9.09160355,12.8668501 C4.07560355,13.1988003 0.181603546,17.3813729 0.181603546,22.4270161 L0.181603546,32.8502526 L33.1816035,32.8502526 L33.1816035,22.4270161 C33.1816035,17.3813729 29.2876035,13.1988003 24.2716035,12.8668501 Z M20.9716035,12.8004601 L18.3316035,12.8004601 L18.3316035,11.3398792 L15.0316035,11.3398792 L15.0316035,12.8004601 L12.3916035,12.8004601 L12.3916035,9.0162277 L20.9716035,9.0162277 L20.9716035,12.8004601 L20.9716035,12.8004601 Z" id="Shape"></path>
                <path d="M0.465700167,36.6738745 L0.465700167,47.12842 C0.465700167,50.72217 2.51170017,53.9892154 5.74570017,55.6227381 L5.74570017,59.6738745 L28.1857002,59.6738745 L28.1857002,55.6227381 C31.4197002,53.9892154 33.4657002,50.72217 33.4657002,47.12842 L33.4657002,36.6738745 L0.465700167,36.6738745 Z" id="Path"></path>
            </g>
            <g id="gas" transform="translate(353.339011, 331.464517) rotate(26.000000) translate(-353.339011, -331.464517) translate(330.339011, 291.464517)" fill="#D9A5A5" fill-rule="nonzero">
                <path d="M33.0072673,16.9401332 L33.0072673,11.855071 L34.1512673,11.855071 C37.1432673,11.855071 39.6072673,9.3571457 39.6072673,6.32395068 C39.6072673,3.29075566 37.1432673,0.792830344 34.1512673,0.792830344 L11.6232673,0.792830344 C8.63126729,0.792830344 6.16726729,3.29075566 6.16726729,6.32395068 C6.16726729,9.3571457 8.63126729,11.855071 11.6232673,11.855071 L12.7672673,11.855071 L12.7672673,16.9401332 C6.07926729,17.3861913 0.887267295,23.0065233 0.887267295,29.7866063 L0.887267295,43.7928303 L44.8872673,43.7928303 L44.8872673,29.7866063 C44.8872673,23.0065233 39.6952673,17.3861913 33.0072673,16.9401332 Z M28.6072673,16.8509216 L25.0872673,16.8509216 L25.0872673,14.888266 L20.6872673,14.888266 L20.6872673,16.8509216 L17.1672673,16.8509216 L17.1672673,11.7658594 L28.6072673,11.7658594 L28.6072673,16.8509216 L28.6072673,16.8509216 Z" id="Shape"></path>
                <path d="M1.14789247,47.8882877 L1.14789247,62.4337423 C1.14789247,67.4337423 3.87589247,71.9791968 8.18789247,74.2519241 L8.18789247,79.8882877 L38.1078925,79.8882877 L38.1078925,74.2519241 C42.4198925,71.9791968 45.1478925,67.4337423 45.1478925,62.4337423 L45.1478925,47.8882877 L1.14789247,47.8882877 Z" id="Path"></path>
            </g>
            <g id="gas" transform="translate(97.760063, 231.597097) rotate(28.000000) translate(-97.760063, -231.597097) translate(80.260063, 201.097097)" fill="#D9A5A5" fill-rule="nonzero">
                <path d="M24.9155587,12.4645482 L24.9155587,8.6803158 L25.7995587,8.6803158 C28.1115587,8.6803158 30.0155587,6.82139464 30.0155587,4.56413323 C30.0155587,2.30687182 28.1115587,0.447950657 25.7995587,0.447950657 L8.39155871,0.447950657 C6.07955871,0.447950657 4.17555871,2.30687182 4.17555871,4.56413323 C4.17555871,6.82139464 6.07955871,8.6803158 8.39155871,8.6803158 L9.27555871,8.6803158 L9.27555871,12.4645482 C4.10755871,12.7964984 0.0955587109,16.979071 0.0955587109,22.0247141 L0.0955587109,32.4479507 L34.0955587,32.4479507 L34.0955587,22.0247141 C34.0955587,16.979071 30.0835587,12.7964984 24.9155587,12.4645482 Z M21.5155587,12.3981581 L18.7955587,12.3981581 L18.7955587,10.9375772 L15.3955587,10.9375772 L15.3955587,12.3981581 L12.6755587,12.3981581 L12.6755587,8.61392576 L21.5155587,8.61392576 L21.5155587,12.3981581 L21.5155587,12.3981581 Z" id="Shape"></path>
                <path d="M-0.00345142399,36.2125567 L-0.00345142399,47.1216476 C-0.00345142399,50.8716476 2.10454858,54.2807385 5.43654858,55.985284 L5.43654858,60.2125567 L28.5565486,60.2125567 L28.5565486,55.985284 C31.8885486,54.2807385 33.9965486,50.8716476 33.9965486,47.1216476 L33.9965486,36.2125567 L-0.00345142399,36.2125567 Z" id="Path"></path>
            </g>
            <g id="gas" transform="translate(230.395053, 83.797199) rotate(37.000000) translate(-230.395053, -83.797199) translate(213.395053, 53.797199)" fill="#D9A5A5" fill-rule="nonzero">
                <path d="M24.7342993,12.2149848 L24.7342993,8.43075241 L25.5662993,8.43075241 C27.7422993,8.43075241 29.5342993,6.57183125 29.5342993,4.31456984 C29.5342993,2.05730843 27.7422993,0.198387268 25.5662993,0.198387268 L9.18229932,0.198387268 C7.00629932,0.198387268 5.21429932,2.05730843 5.21429932,4.31456984 C5.21429932,6.57183125 7.00629932,8.43075241 9.18229932,8.43075241 L10.0142993,8.43075241 L10.0142993,12.2149848 C5.15029932,12.546935 1.37429932,16.7295076 1.37429932,21.7751508 L1.37429932,32.1983873 L33.3742993,32.1983873 L33.3742993,21.7751508 C33.3742993,16.7295076 29.5982993,12.546935 24.7342993,12.2149848 Z M21.5342993,12.1485947 L18.9742993,12.1485947 L18.9742993,10.6880138 L15.7742993,10.6880138 L15.7742993,12.1485947 L13.2142993,12.1485947 L13.2142993,8.36436237 L21.5342993,8.36436237 L21.5342993,12.1485947 L21.5342993,12.1485947 Z" id="Shape"></path>
                <path d="M0.146057186,36.3012577 L0.146057186,46.7558032 C0.146057186,50.3495532 2.13005719,53.6165986 5.26605719,55.2501214 L5.26605719,59.3012577 L27.0260572,59.3012577 L27.0260572,55.2501214 C30.1620572,53.6165986 32.1460572,50.3495532 32.1460572,46.7558032 L32.1460572,36.3012577 L0.146057186,36.3012577 Z" id="Path"></path>
            </g>
            <g id="gas" transform="translate(370.500000, 49.500000) rotate(37.000000) translate(-370.500000, -49.500000) translate(349.000000, 12.000000)" fill="#D9A5A5" fill-rule="nonzero">
                <path d="M31.1809228,15.929606 L31.1809228,11.1993155 L32.2469228,11.1993155 C35.0349228,11.1993155 37.3309228,8.87566408 37.3309228,6.05408732 C37.3309228,3.23251055 35.0349228,0.9088591 32.2469228,0.9088591 L11.2549228,0.9088591 C8.46692284,0.9088591 6.17092284,3.23251055 6.17092284,6.05408732 C6.17092284,8.87566408 8.46692284,11.1993155 11.2549228,11.1993155 L12.3209228,11.1993155 L12.3209228,15.929606 C6.08892284,16.3445437 1.25092284,21.5727595 1.25092284,27.8798135 L1.25092284,40.9088591 L42.2509228,40.9088591 L42.2509228,27.8798135 C42.2509228,21.5727595 37.4129228,16.3445437 31.1809228,15.929606 Z M27.0809228,15.8466184 L23.8009228,15.8466184 L23.8009228,14.0208923 L19.7009228,14.0208923 L19.7009228,15.8466184 L16.4209228,15.8466184 L16.4209228,11.116328 L27.0809228,11.116328 L27.0809228,15.8466184 L27.0809228,15.8466184 Z" id="Shape"></path>
                <path d="M0.439028805,45.2108027 L0.439028805,58.3926209 C0.439028805,62.9238709 2.98102881,67.0431891 6.99902881,69.1028482 L6.99902881,74.2108027 L34.8790288,74.2108027 L34.8790288,69.1028482 C38.8970288,67.0431891 41.4390288,62.9238709 41.4390288,58.3926209 L41.4390288,45.2108027 L0.439028805,45.2108027 Z" id="Path"></path>
            </g>
            <g id="gas" transform="translate(396.500000, 230.500000) rotate(37.000000) translate(-396.500000, -230.500000) translate(375.000000, 193.000000)" fill="#D9A5A5" fill-rule="nonzero">
                <path d="M31.1809228,15.929606 L31.1809228,11.1993155 L32.2469228,11.1993155 C35.0349228,11.1993155 37.3309228,8.87566408 37.3309228,6.05408732 C37.3309228,3.23251055 35.0349228,0.9088591 32.2469228,0.9088591 L11.2549228,0.9088591 C8.46692284,0.9088591 6.17092284,3.23251055 6.17092284,6.05408732 C6.17092284,8.87566408 8.46692284,11.1993155 11.2549228,11.1993155 L12.3209228,11.1993155 L12.3209228,15.929606 C6.08892284,16.3445437 1.25092284,21.5727595 1.25092284,27.8798135 L1.25092284,40.9088591 L42.2509228,40.9088591 L42.2509228,27.8798135 C42.2509228,21.5727595 37.4129228,16.3445437 31.1809228,15.929606 Z M27.0809228,15.8466184 L23.8009228,15.8466184 L23.8009228,14.0208923 L19.7009228,14.0208923 L19.7009228,15.8466184 L16.4209228,15.8466184 L16.4209228,11.116328 L27.0809228,11.116328 L27.0809228,15.8466184 L27.0809228,15.8466184 Z" id="Shape"></path>
                <path d="M0.439028805,45.2108027 L0.439028805,58.3926209 C0.439028805,62.9238709 2.98102881,67.0431891 6.99902881,69.1028482 L6.99902881,74.2108027 L34.8790288,74.2108027 L34.8790288,69.1028482 C38.8970288,67.0431891 41.4390288,62.9238709 41.4390288,58.3926209 L41.4390288,45.2108027 L0.439028805,45.2108027 Z" id="Path"></path>
            </g>
        </g>
    </g>
</svg>